<svg width="424" height="332" viewBox="0 0 424 332" fill="none" xmlns="http://www.w3.org/2000/svg">
<path d="M197.574 14.1421C205.384 6.33165 218.047 6.33165 225.858 14.1421L297.574 85.8579C305.384 93.6684 305.384 106.332 297.574 114.142L225.858 185.858C218.047 193.668 205.384 193.668 197.574 185.858L125.858 114.142C118.047 106.332 118.047 93.6684 125.858 85.8579L197.574 14.1421Z" fill="#64B6AC"/>
<path fill-rule="evenodd" clip-rule="evenodd" d="M77.5736 133.642C85.3841 125.832 98.0474 125.832 105.858 133.642L141.716 169.5L191.716 219.5L197.574 225.358C205.384 233.168 218.047 233.168 225.858 225.358L231.716 219.5L281.716 169.5L317.574 133.642C325.384 125.832 338.047 125.832 345.858 133.642L381.716 169.5L417.574 205.358C425.384 213.168 425.384 225.832 417.574 233.642L395.858 255.358C388.047 263.168 375.384 263.168 367.574 255.358L345.858 233.642C338.047 225.832 325.384 225.832 317.574 233.642L281.716 269.5L231.716 319.5L225.858 325.358C218.047 333.168 205.384 333.168 197.574 325.358L191.716 319.5L141.716 269.5L105.858 233.642C98.0474 225.832 85.3841 225.832 77.5736 233.642L55.8579 255.358C48.0474 263.168 35.3841 263.168 27.5736 255.358L5.85787 233.642C-1.95262 225.832 -1.95262 213.168 5.85786 205.358L41.7157 169.5L77.5736 133.642Z" fill="#173F5F"/>
</svg>
